<?xml version="1.0" encoding="UTF-8" standalone="no"?>
<!-- Created with Inkscape (http://www.inkscape.org/) -->

<svg
   xmlns:dc="http://purl.org/dc/elements/1.1/"
   xmlns:cc="http://creativecommons.org/ns#"
   xmlns:rdf="http://www.w3.org/1999/02/22-rdf-syntax-ns#"
   xmlns:svg="http://www.w3.org/2000/svg"
   xmlns="http://www.w3.org/2000/svg"
   xmlns:sodipodi="http://sodipodi.sourceforge.net/DTD/sodipodi-0.dtd"
   xmlns:inkscape="http://www.inkscape.org/namespaces/inkscape"
   width="210mm"
   height="297mm"
   viewBox="0 0 210 297"
   version="1.1"
   id="svg1012"
   inkscape:version="0.92.0 r"
   sodipodi:docname="banner-minicurso.svg"
   inkscape:export-filename="/home/murilo/banner-minicurso.svg.png"
   inkscape:export-xdpi="299.98746"
   inkscape:export-ydpi="299.98746">
  <defs
     id="defs1006" />
  <sodipodi:namedview
     id="base"
     pagecolor="#ffffff"
     bordercolor="#666666"
     borderopacity="1.0"
     inkscape:pageopacity="0.0"
     inkscape:pageshadow="2"
     inkscape:zoom="1.3178097"
     inkscape:cx="222.44672"
     inkscape:cy="402.40117"
     inkscape:document-units="mm"
     inkscape:current-layer="layer1"
     showgrid="false"
     inkscape:window-width="1366"
     inkscape:window-height="708"
     inkscape:window-x="0"
     inkscape:window-y="31"
     inkscape:window-maximized="1"
     inkscape:pagecheckerboard="true"
     inkscape:snap-others="false"
     inkscape:object-nodes="false"
     inkscape:snap-nodes="false"
     showguides="true"
     inkscape:guide-bbox="true">
    <sodipodi:guide
       position="-9.0860422,270.59369"
       orientation="0,1"
       id="guide5157"
       inkscape:locked="false" />
  </sodipodi:namedview>
  <metadata
     id="metadata1009">
    <rdf:RDF>
      <cc:Work
         rdf:about="">
        <dc:format>image/svg+xml</dc:format>
        <dc:type
           rdf:resource="http://purl.org/dc/dcmitype/StillImage" />
        <dc:title></dc:title>
      </cc:Work>
    </rdf:RDF>
  </metadata>
  <g
     inkscape:groupmode="layer"
     id="layer2"
     inkscape:label="Layer 2"
     style="display:none"
     sodipodi:insensitive="true" />
  <g
     inkscape:label="Layer 1"
     inkscape:groupmode="layer"
     id="layer1"
     style="display:inline">
    <rect
       style="fill:#68407c;fill-opacity:1;stroke:#ffffff;stroke-width:0.73451906;stroke-linecap:round;stroke-linejoin:bevel;stroke-miterlimit:4;stroke-dasharray:none;stroke-dashoffset:38.89133835;stroke-opacity:1"
       id="rect5138"
       width="131.05885"
       height="69.626427"
       x="-12.587718"
       y="139.84123" />
    <g
       id="g5149"
       transform="matrix(0.29656772,0,0,0.29656772,41.225695,145.35551)">
      <path
         sodipodi:nodetypes="cccccccccccccccccccccccccccccccccccc"
         inkscape:connector-curvature="0"
         id="path1629"
         d="M 20.319556,5.745119 C 18.751215,5.606585 17.761688,7.829652 16.262578,6.594462 14.453223,5.46774 13.02599,7.792047 11.464892,8.431974 10.25168,9.375132 8.6701354,9.954281 7.6795004,11.117402 c 1.397912,1.297849 1.498209,1.80726 -0.489892,2.708878 -2.44973,1.371524 -1.406051,5.525967 1.401465,5.57537 2.2471936,-0.0053 3.7957106,-2.044842 5.6957756,-2.985347 2.17079,1.628221 4.341303,3.257269 6.512265,4.884973 -0.193334,1.51182 0.27534,3.442392 -0.31111,4.705545 -1.631936,0.868323 -3.499591,1.577231 -4.810542,2.872803 0.587348,2.124843 1.076271,4.383051 1.973523,6.379973 1.495575,0.625678 2.866261,2.177227 4.456059,2.188498 1.743567,-1.439281 3.467983,-2.899423 4.99246,-4.574916 1.842566,0.681392 -0.998625,2.423734 -1.358056,3.603914 0.141697,1.683744 1.653567,3.121056 2.323655,4.708337 1.210474,1.315691 3.164432,1.815792 4.653694,2.822982 1.42322,-0.26594 2.206808,-2.089909 3.301913,-3.044666 0.917403,-1.582955 1.910075,-2.805708 3.504311,-1.149575 1.25837,0.311264 2.78759,2.447518 3.93543,1.340104 1.16868,-1.740961 2.33737,-3.481922 3.50605,-5.222886 4.06935,1.250916 8.1387,2.501829 12.20805,3.752745 -1.36269,1.786498 -3.86603,3.341808 -2.59975,5.954958 1.00755,2.27215 5.0139,1.37246 6.16684,-0.7106 l 2.79428,-3.288921 c 1.76053,0.919726 2.43799,-1.684083 3.58155,-2.538307 1.23915,-1.635524 2.90061,-3.044827 3.86864,-4.825584 -1.05556,-0.558295 -0.27716,-1.537282 -0.65733,-2.50889 -0.5807,-2.234245 -3.82314,-2.879961 -5.21725,-1.039731 -4.02577,-2.271178 -8.05153,-4.542358 -12.0773,-6.813537 1.06384,-1.958528 3.25028,-3.598124 2.71456,-6.056994 -0.10848,-2.818992 0.26457,-5.765632 -0.35036,-8.500259 -3.57999,-0.652204 -7.24373,-1.240891 -10.85722,-1.636593 -4.05699,1.744852 -8.051566,3.831622 -12.147033,5.365629 C 31.55144,12.951064 28.992058,11.236974 26.262615,10.422673 25.297502,9.727604 22.978826,10.006751 23.418592,8.368732 23.242944,6.863016 21.834448,5.669537 20.319556,5.745119 Z"
         style="display:inline;fill:#ecddff;fill-opacity:0.09019608;stroke:#ecddff;stroke-width:2;stroke-linecap:round;stroke-linejoin:bevel;stroke-miterlimit:4;stroke-dasharray:none;stroke-opacity:1" />
      <path
         inkscape:connector-curvature="0"
         id="path1163"
         d="m 56.966591,13.29785 -13.45193,17.668204 -0.40155,9.637205"
         style="display:inline;fill:#000000;fill-opacity:0;stroke:#ecddff;stroke-width:1;stroke-linecap:butt;stroke-linejoin:miter;stroke-miterlimit:4;stroke-dasharray:3.00000003, 1.00000001;stroke-dashoffset:0;stroke-opacity:1" />
      <path
         inkscape:connector-curvature="0"
         id="path1165"
         d="M 43.113111,30.564504 21.228626,19.923427"
         style="display:inline;fill:#ecddff;fill-opacity:0.09019608;stroke:#ecddff;stroke-width:1;stroke-linecap:butt;stroke-linejoin:miter;stroke-miterlimit:4;stroke-dasharray:3.00000003, 1.00000001;stroke-dashoffset:0;stroke-opacity:1" />
      <path
         inkscape:connector-curvature="0"
         id="path1167"
         d="M 41.707681,18.317227 40.503032,13.6994 h -7.227903 l -0.401551,9.837977"
         style="display:inline;fill:#ecddff;fill-opacity:0;stroke:#ecddff;stroke-width:1;stroke-linecap:butt;stroke-linejoin:miter;stroke-miterlimit:4;stroke-dasharray:3.00000003, 1.00000001;stroke-dashoffset:0;stroke-opacity:1" />
      <path
         inkscape:connector-curvature="0"
         id="path1177"
         d="M 20.827076,20.525752 35.483656,12.49475"
         style="display:inline;fill:#ecddff;fill-opacity:0.09019608;stroke:#ecddff;stroke-width:1;stroke-linecap:butt;stroke-linejoin:miter;stroke-miterlimit:4;stroke-dasharray:3.00000003, 1.00000001;stroke-dashoffset:0;stroke-opacity:1" />
      <path
         sodipodi:nodetypes="ccccc"
         inkscape:connector-curvature="0"
         id="path1183"
         d="m 38.093731,37.993184 1.912408,-3.471984 -1.34453,-3.662666 -5.577166,-1.427693 -4.627914,3.743741"
         style="display:inline;fill:#ecddff;fill-opacity:0;stroke:#ecddff;stroke-width:1;stroke-linecap:butt;stroke-linejoin:miter;stroke-miterlimit:4;stroke-dasharray:3.00000003, 1.00000001;stroke-dashoffset:0;stroke-opacity:1" />
      <path
         sodipodi:nodetypes="ccccc"
         inkscape:connector-curvature="0"
         id="path1185"
         d="m 27.452653,31.969931 2.13754,-2.646613 -1.33444,-3.175863 -3.366549,-1.723812 -3.413177,1.226919"
         style="display:inline;fill:#ecddff;fill-opacity:0;stroke:#ecddff;stroke-width:1;stroke-linecap:butt;stroke-linejoin:miter;stroke-miterlimit:4;stroke-dasharray:3.00000011, 1.00000004;stroke-dashoffset:10;stroke-opacity:1" />
      <path
         inkscape:connector-curvature="0"
         id="path43"
         d="m 33.42271,24.454555 8.234231,-6.246653"
         style="display:inline;fill:#ecddff;fill-opacity:0.09019608;stroke:#ecddff;stroke-width:1;stroke-linecap:butt;stroke-linejoin:miter;stroke-miterlimit:4;stroke-dasharray:3.00000011, 1.00000004;stroke-dashoffset:10;stroke-opacity:1" />
      <path
         transform="rotate(-26.315742)"
         d="m 40.21604,32.625996 a 3.1120136,2.308913 0 0 1 -3.105346,2.308907 3.1120136,2.308913 0 0 1 -3.118652,-2.299014 3.1120136,2.308913 0 0 1 3.091983,-2.318759 3.1120136,2.308913 0 0 1 3.131901,2.289079"
         sodipodi:open="true"
         sodipodi:end="6.2746157"
         sodipodi:start="0"
         sodipodi:ry="2.308913"
         sodipodi:rx="3.1120136"
         sodipodi:cy="32.625996"
         sodipodi:cx="37.104027"
         sodipodi:type="arc"
         id="path850"
         style="display:inline;fill:#ecddff;fill-opacity:0;stroke:#ecddff;stroke-width:0.99999994;stroke-linecap:round;stroke-linejoin:bevel;stroke-miterlimit:4;stroke-dasharray:1.00000001, 2.00000003;stroke-dashoffset:10;stroke-opacity:1" />
    </g>
    <text
       xml:space="preserve"
       style="font-style:normal;font-variant:normal;font-weight:bold;font-stretch:normal;font-size:2.83673453px;line-height:4.43239784px;font-family:'DejaVu Sans Mono';-inkscape-font-specification:'DejaVu Sans Mono Bold';letter-spacing:0px;word-spacing:0px;fill:#ecddff;fill-opacity:1;stroke:none;stroke-width:0.17729591"
       x="-1.4199264"
       y="170.51248"
       id="text5153"><tspan
         sodipodi:role="line"
         id="tspan5151"
         x="-1.4199264"
         y="170.51248"
         style="font-style:normal;font-variant:normal;font-weight:bold;font-stretch:normal;font-size:9.52500057px;font-family:'DejaVu Sans Mono';-inkscape-font-specification:'DejaVu Sans Mono Bold';fill:#ecddff;fill-opacity:1;stroke-width:0.17729591">Minicurso GNU/Linux</tspan></text>
    <text
       xml:space="preserve"
       style="font-style:normal;font-variant:normal;font-weight:normal;font-stretch:normal;font-size:2.83673453px;line-height:4.43239784px;font-family:'DejaVu Sans Mono';-inkscape-font-specification:'DejaVu Sans Mono';letter-spacing:0px;word-spacing:0px;fill:#000000;fill-opacity:1;stroke:none;stroke-width:0.17729591"
       x="52.66024"
       y="179.83049"
       id="text5161"><tspan
         sodipodi:role="line"
         id="tspan5159"
         x="52.66024"
         y="179.83049"
         style="font-size:4.25510168px;text-align:center;text-anchor:middle;fill:#ffffff;fill-opacity:1;stroke-width:0.17729591">13, 15 e 17/03 das 18:00 às 18:45</tspan><tspan
         sodipodi:role="line"
         x="53.940094"
         y="184.63133"
         style="font-size:4.25510168px;text-align:center;text-anchor:middle;fill:#ffffff;fill-opacity:1;stroke-width:0.17729591"
         id="tspan5163">Laboratório 304 no IC3 </tspan></text>
    <text
       xml:space="preserve"
       style="font-style:normal;font-variant:normal;font-weight:normal;font-stretch:normal;font-size:2.83673453px;line-height:4.43239784px;font-family:'DejaVu Sans Mono';-inkscape-font-specification:'DejaVu Sans Mono';letter-spacing:0px;word-spacing:0px;fill:#000000;fill-opacity:1;stroke:none;stroke-width:0.17729591"
       x="53.437851"
       y="193.96893"
       id="text5167"><tspan
         sodipodi:role="line"
         x="53.437851"
         y="193.96893"
         style="font-style:normal;font-variant:normal;font-weight:bold;font-stretch:normal;font-size:5.64444447px;font-family:'DejaVu Sans Mono';-inkscape-font-specification:'DejaVu Sans Mono Bold';text-align:center;text-anchor:middle;fill:#ffffff;fill-opacity:1;stroke-width:0.17729591"
         id="tspan5169">livrecamp.org</tspan></text>
  </g>
  <g
     inkscape:groupmode="layer"
     id="layer3"
     inkscape:label="Layer 3"
     style="display:none"
     sodipodi:insensitive="true">
    <path
       style="fill:none;stroke:#000000;stroke-width:0.70695961;stroke-linecap:butt;stroke-linejoin:miter;stroke-miterlimit:4;stroke-dasharray:none;stroke-opacity:1"
       d="M 7.8838022,22.211293 20.242441,13.786632 c 0.526418,-1.294877 -1.401343,-3.54535 -3.191717,-3.340175 l -12.7668827,8.72157 z"
       id="path1609"
       inkscape:connector-curvature="0"
       sodipodi:nodetypes="ccccc" />
    <path
       style="fill:none;stroke:#000000;stroke-width:0.70695961;stroke-linecap:butt;stroke-linejoin:miter;stroke-miterlimit:4;stroke-dasharray:none;stroke-opacity:1"
       d="M 31.561915,18.091752 12.560046,10.817589 5.7312537,15.271153 18.558849,24.894175 Z"
       id="path1039"
       inkscape:connector-curvature="0"
       sodipodi:nodetypes="ccccc" />
    <path
       style="fill:none;stroke:#000000;stroke-width:0.70695961;stroke-linecap:butt;stroke-linejoin:miter;stroke-miterlimit:4;stroke-dasharray:none;stroke-opacity:1"
       d="M 54.423543,16.90413 44.031897,12.30211 18.795036,23.732931 40.765955,35.015299 Z"
       id="path1025"
       inkscape:connector-curvature="0" />
    <path
       style="fill:none;stroke:#000000;stroke-width:0.70695961;stroke-linecap:butt;stroke-linejoin:miter;stroke-miterlimit:4;stroke-dasharray:none;stroke-opacity:1"
       d="m 54.423543,16.90413 v 6.828801 l -14.251403,21.22866 0.593815,-9.946292 z"
       id="path1027"
       inkscape:connector-curvature="0" />
    <path
       style="fill:none;stroke:#000000;stroke-width:0.70695961;stroke-linecap:butt;stroke-linejoin:miter;stroke-miterlimit:4;stroke-dasharray:none;stroke-opacity:1"
       d="m 18.795036,23.732931 -0.148454,9.204042 21.525558,12.024618 0.593815,-9.946292 z"
       id="path1033"
       inkscape:connector-curvature="0" />
    <path
       style="fill:none;stroke:#000000;stroke-width:0.70695961;stroke-linecap:butt;stroke-linejoin:miter;stroke-miterlimit:4;stroke-dasharray:none;stroke-opacity:1"
       d="M 54.423543,16.90413 54.27509,13.860855 44.031897,12.30211 Z"
       id="path1037"
       inkscape:connector-curvature="0"
       sodipodi:nodetypes="cccc" />
    <path
       style="fill:none;stroke:#000000;stroke-width:0.70695961;stroke-linecap:butt;stroke-linejoin:miter;stroke-miterlimit:4;stroke-dasharray:none;stroke-opacity:1"
       d="M 58.669166,50.467298 69.044867,37.82558 C 69.68441,36.281069 68.649786,32.802076 65.097353,34.721567 L 53.340545,47.21318 Z"
       id="path1586"
       inkscape:connector-curvature="0"
       sodipodi:nodetypes="ccccc" />
    <path
       style="fill:none;stroke:#000000;stroke-width:0.70695961;stroke-linecap:butt;stroke-linejoin:miter;stroke-miterlimit:4;stroke-dasharray:none;stroke-opacity:1"
       d="m 49.673076,26.998882 -7.719507,11.579266 21.674007,6.680351 5.938092,-6.977248 z"
       id="path1035"
       inkscape:connector-curvature="0" />
    <ellipse
       style="fill:none;stroke:#000000;stroke-width:0.7070567;stroke-linecap:round;stroke-linejoin:round;stroke-miterlimit:4;stroke-dasharray:none;stroke-opacity:1"
       id="path1041"
       cx="-73.31691"
       cy="10.081614"
       rx="2.9986835"
       ry="2.5306795"
       transform="matrix(-0.83752939,-0.54639228,-0.52661079,0.85010651,0,0)" />
    <ellipse
       style="fill:none;stroke:#000000;stroke-width:0.71968001;stroke-linecap:round;stroke-linejoin:round;stroke-miterlimit:4;stroke-dasharray:none;stroke-opacity:1"
       id="path1607"
       cx="-21.617178"
       cy="11.176511"
       rx="2.2678294"
       ry="1.8288864"
       transform="matrix(-0.72440808,-0.6893714,-0.85529419,0.51814269,0,0)" />
    <path
       style="fill:none;stroke:#000000;stroke-width:0.70695961;stroke-linecap:butt;stroke-linejoin:miter;stroke-miterlimit:4;stroke-dasharray:none;stroke-opacity:1"
       d="M 38.836073,22.248409 38.168037,18.091752 30.652648,17.609282 30.30008,28.557633 Z"
       id="path1611"
       inkscape:connector-curvature="0"
       sodipodi:nodetypes="ccccc" />
    <path
       style="fill:none;stroke:#000000;stroke-width:0.70695961;stroke-linecap:butt;stroke-linejoin:miter;stroke-miterlimit:4;stroke-dasharray:none;stroke-opacity:1"
       d="m 30.78254,39.209068 -4.602008,-2.189663 -2.597919,3.674187 2.486573,4.379339 4.268002,2.338117 2.449457,-2.672133 z"
       id="path1613"
       inkscape:connector-curvature="0" />
    <path
       style="fill:none;stroke:#000000;stroke-width:0.70695961;stroke-linecap:butt;stroke-linejoin:miter;stroke-miterlimit:4;stroke-dasharray:none;stroke-opacity:1"
       d="m 20.056878,33.939026 -3.896869,-2.486581 -2.486571,1.484528 1.707196,5.78963 3.822639,2.226781 2.894819,-2.44946 z"
       id="path1615"
       inkscape:connector-curvature="0"
       sodipodi:nodetypes="ccccccc" />
    <path
       style="fill:none;stroke:#000000;stroke-width:0.70695961;stroke-linecap:butt;stroke-linejoin:miter;stroke-miterlimit:4;stroke-dasharray:none;stroke-opacity:1"
       d="m 32.786645,44.738915 4.564907,-6.012312 -2.004108,-3.19172 -2.709243,-1.558751 -6.457669,3.043273 4.602008,2.189663 z"
       id="path1617"
       inkscape:connector-curvature="0" />
    <path
       style="fill:none;stroke:#000000;stroke-width:0.70695961;stroke-linecap:butt;stroke-linejoin:miter;stroke-miterlimit:4;stroke-dasharray:none;stroke-opacity:1"
       d="M 35.347444,35.534883 30.78254,39.209068"
       id="path1619"
       inkscape:connector-curvature="0" />
    <path
       style="fill:none;stroke:#000000;stroke-width:0.70695961;stroke-linecap:butt;stroke-linejoin:miter;stroke-miterlimit:4;stroke-dasharray:none;stroke-opacity:1"
       d="m 22.098092,38.503924 4.602017,-4.676237 -1.224729,-3.785533 -3.080381,-1.67009 -6.23499,3.080381 3.896869,2.486581 z"
       id="path1621"
       inkscape:connector-curvature="0" />
    <path
       style="fill:none;stroke:#000000;stroke-width:0.70695961;stroke-linecap:butt;stroke-linejoin:miter;stroke-miterlimit:4;stroke-dasharray:none;stroke-opacity:1"
       d="m 25.47538,30.042154 -5.418502,3.896872"
       id="path1623"
       inkscape:connector-curvature="0" />
    <ellipse
       style="fill:none;stroke:#000000;stroke-width:0.70695955;stroke-linecap:round;stroke-linejoin:round;stroke-miterlimit:4;stroke-dasharray:none;stroke-opacity:1"
       id="path1625"
       ry="2.07833"
       rx="3.3030608"
       cy="28.364344"
       cx="-40.634392"
       transform="matrix(-0.96646513,0.25679789,0.25679789,0.96646513,0,0)" />
    <path
       style="fill:none;stroke:#000000;stroke-width:0.70695955;stroke-linecap:round;stroke-linejoin:round;stroke-miterlimit:4;stroke-dasharray:none;stroke-opacity:1"
       id="path1629-6"
       sodipodi:type="arc"
       sodipodi:cx="6.1650009"
       sodipodi:cy="57.02813"
       sodipodi:rx="2.4547997"
       sodipodi:ry="0.75823599"
       sodipodi:start="0"
       sodipodi:end="6.2746091"
       d="M 8.6198006,57.02813 A 2.4547997,0.75823599 0 0 1 6.1702641,57.786364 2.4547997,0.75823599 0 0 1 3.7102238,57.031381 2.4547997,0.75823599 0 0 1 6.1492114,56.269909 2.4547997,0.75823599 0 0 1 8.6197103,57.021627"
       sodipodi:open="true"
       transform="matrix(-0.29436513,0.95569303,0.95569303,0.29436513,0,0)" />
  </g>
</svg>
