<?xml version="1.0" encoding="UTF-8" standalone="no"?>
<!-- Created with Inkscape (http://www.inkscape.org/) -->

<svg
   xmlns:dc="http://purl.org/dc/elements/1.1/"
   xmlns:cc="http://creativecommons.org/ns#"
   xmlns:rdf="http://www.w3.org/1999/02/22-rdf-syntax-ns#"
   xmlns:svg="http://www.w3.org/2000/svg"
   xmlns="http://www.w3.org/2000/svg"
   xmlns:sodipodi="http://sodipodi.sourceforge.net/DTD/sodipodi-0.dtd"
   xmlns:inkscape="http://www.inkscape.org/namespaces/inkscape"
   width="210mm"
   height="297mm"
   viewBox="0 0 210 297"
   version="1.1"
   id="svg1012"
   inkscape:version="0.92.0 r"
   sodipodi:docname="logo-site.svg"
   inkscape:export-filename="/home/murilo/logo-site.svg.png"
   inkscape:export-xdpi="96"
   inkscape:export-ydpi="96">
  <defs
     id="defs1006" />
  <sodipodi:namedview
     id="base"
     pagecolor="#ffffff"
     bordercolor="#666666"
     borderopacity="1.0"
     inkscape:pageopacity="0.0"
     inkscape:pageshadow="2"
     inkscape:zoom="0.65890487"
     inkscape:cx="-115.72023"
     inkscape:cy="782.61494"
     inkscape:document-units="mm"
     inkscape:current-layer="layer1"
     showgrid="false"
     inkscape:window-width="1366"
     inkscape:window-height="708"
     inkscape:window-x="0"
     inkscape:window-y="31"
     inkscape:window-maximized="1"
     inkscape:pagecheckerboard="true"
     inkscape:snap-others="false"
     inkscape:object-nodes="false"
     inkscape:snap-nodes="false"
     showguides="false" />
  <metadata
     id="metadata1009">
    <rdf:RDF>
      <cc:Work
         rdf:about="">
        <dc:format>image/svg+xml</dc:format>
        <dc:type
           rdf:resource="http://purl.org/dc/dcmitype/StillImage" />
        <dc:title></dc:title>
      </cc:Work>
    </rdf:RDF>
  </metadata>
  <g
     inkscape:groupmode="layer"
     id="layer2"
     inkscape:label="Layer 2"
     style="display:none"
     sodipodi:insensitive="true" />
  <g
     inkscape:label="Layer 1"
     inkscape:groupmode="layer"
     id="layer1"
     style="display:inline">
    <path
       style="fill:#ecddff;stroke:#ecddff;stroke-width:2;stroke-linecap:round;stroke-linejoin:bevel;stroke-miterlimit:4;stroke-dasharray:none;stroke-opacity:1;fill-opacity:0.09019608"
       d="m 17.562235,9.9683836 c -1.568341,-0.1385342 -2.557868,2.0845324 -4.056978,0.8493424 -1.809354,-1.1267218 -3.236587,1.197585 -4.7976855,1.837512 -1.2132114,0.943158 -2.7947572,1.522307 -3.7853913,2.685428 1.3979117,1.297849 1.4982089,1.80726 -0.4898927,2.708878 -2.4497293,1.371524 -1.4060506,5.525967 1.4014648,5.57537 2.2471946,-0.0053 3.7957114,-2.044842 5.6957767,-2.985347 2.170789,1.628221 4.341302,3.257269 6.512264,4.884973 -0.193334,1.51182 0.27534,3.442392 -0.31111,4.705545 -1.631936,0.868323 -3.499591,1.577231 -4.810542,2.872803 0.587349,2.124843 1.076272,4.383051 1.973523,6.379972 1.495575,0.625679 2.866261,2.177227 4.456059,2.188499 1.743567,-1.439281 3.467983,-2.899424 4.99246,-4.574916 1.842566,0.681392 -0.998625,2.423734 -1.358056,3.603913 0.141697,1.683745 1.653567,3.121057 2.323655,4.708337 1.210474,1.315691 3.164432,1.815793 4.653695,2.822988 1.42322,-0.265949 2.206808,-2.089915 3.301913,-3.044671 0.917403,-1.582955 1.910074,-2.805708 3.504311,-1.149575 1.258374,0.311263 2.787594,2.447517 3.935428,1.340104 1.168686,-1.740961 2.337372,-3.481922 3.506057,-5.222886 4.069347,1.250916 8.138695,2.501829 12.208042,3.752744 -1.362686,1.786499 -3.866028,3.341811 -2.599748,5.954957 1.007552,2.272157 5.013898,1.372467 6.166839,-0.710594 l 2.794278,-3.288925 c 1.760537,0.919726 2.437995,-1.684083 3.581556,-2.538307 1.23915,-1.635524 2.900608,-3.044827 3.868634,-4.825584 -1.055558,-0.558295 -0.277153,-1.537282 -0.657323,-2.50889 -0.580707,-2.234245 -3.823147,-2.879961 -5.217252,-1.039731 -4.025768,-2.271178 -8.051533,-4.542358 -12.077301,-6.813537 1.06384,-1.958528 3.250282,-3.598124 2.714565,-6.056994 C 54.882994,19.2608 55.25604,16.31416 54.641109,13.579533 51.061117,12.927329 47.397384,12.338642 43.78389,11.94294 39.726904,13.687792 35.732325,15.774562 31.636858,17.308569 28.79412,17.174328 26.234737,15.460238 23.505294,14.645937 22.540181,13.950868 20.221505,14.230015 20.661271,12.591996 20.485623,11.08628 19.077127,9.8928009 17.562235,9.9683836 Z"
       id="path1629"
       inkscape:connector-curvature="0"
       sodipodi:nodetypes="cccccccccccccccccccccccccccccccccccc" />
    <path
       style="fill:#ecddff;stroke:#ecddff;stroke-width:1;stroke-linecap:butt;stroke-linejoin:miter;stroke-opacity:1;stroke-miterlimit:4;stroke-dasharray:3, 1;stroke-dashoffset:0;fill-opacity:0.09019608"
       d="m 54.209267,17.521114 -13.45193,17.668204 -0.40155,9.637205"
       id="path1163"
       inkscape:connector-curvature="0" />
    <path
       style="fill:#ecddff;stroke:#ecddff;stroke-width:1;stroke-linecap:butt;stroke-linejoin:miter;stroke-opacity:1;stroke-miterlimit:4;stroke-dasharray:3, 1;stroke-dashoffset:0;fill-opacity:0.09019608"
       d="M 40.355787,34.787768 18.471305,24.146691"
       id="path1165"
       inkscape:connector-curvature="0" />
    <path
       style="fill:#ecddff;stroke:#ecddff;stroke-width:1;stroke-linecap:butt;stroke-linejoin:miter;stroke-opacity:1;stroke-miterlimit:4;stroke-dasharray:3, 1;stroke-dashoffset:0;fill-opacity:0.09019608"
       d="m 38.950362,22.540491 -1.20465,-4.617827 h -7.227903 l -0.401551,9.837977"
       id="path1167"
       inkscape:connector-curvature="0" />
    <path
       style="fill:#ecddff;stroke:#ecddff;stroke-width:1;stroke-linecap:butt;stroke-linejoin:miter;stroke-opacity:1;stroke-miterlimit:4;stroke-dasharray:3, 1;stroke-dashoffset:0;fill-opacity:0.09019608"
       d="M 18.069755,24.749016 32.726336,16.718014"
       id="path1177"
       inkscape:connector-curvature="0" />
    <path
       style="fill:#ecddff;stroke:#ecddff;stroke-width:1;stroke-linecap:butt;stroke-linejoin:miter;stroke-miterlimit:4;stroke-dasharray:3, 1;stroke-dashoffset:0;stroke-opacity:1;fill-opacity:0.09019608"
       d="m 35.336411,42.216448 1.912408,-3.471983 -1.34453,-3.662667 -5.577166,-1.427693 -4.627915,3.743741"
       id="path1183"
       inkscape:connector-curvature="0"
       sodipodi:nodetypes="ccccc" />
    <path
       style="fill:#ecddff;stroke:#ecddff;stroke-width:1;stroke-linecap:butt;stroke-linejoin:miter;stroke-miterlimit:4;stroke-dasharray:3.00000008, 1.00000003000000004;stroke-dashoffset:10;stroke-opacity:1;fill-opacity:0.09019608"
       d="m 24.695332,36.193195 2.13754,-2.646613 -1.33444,-3.175863 -3.366549,-1.723812 -3.413177,1.226919"
       id="path1185"
       inkscape:connector-curvature="0"
       sodipodi:nodetypes="ccccc" />
    <path
       style="fill:#ecddff;stroke:#ecddff;stroke-width:1.00000003;stroke-linecap:butt;stroke-linejoin:miter;stroke-opacity:1;stroke-miterlimit:4;stroke-dasharray:3.00000008, 1.00000003000000004;stroke-dashoffset:10.00000028;fill-opacity:0.09019608"
       d="m 30.665391,28.677819 8.234227,-6.246653"
       id="path43"
       inkscape:connector-curvature="0" />
    <path
       style="fill:#ecddff;stroke:#ecddff;stroke-width:1;stroke-linecap:round;stroke-linejoin:bevel;stroke-miterlimit:4;stroke-dasharray:1.00000003, 2.00000006000000008;stroke-dashoffset:10;stroke-opacity:1;fill-opacity:0.09019608"
       id="path850"
       sodipodi:type="arc"
       sodipodi:cx="32.760212"
       sodipodi:cy="35.189209"
       sodipodi:rx="3.1120136"
       sodipodi:ry="2.3089132"
       sodipodi:start="0"
       sodipodi:end="6.2746157"
       sodipodi:open="true"
       d="m 35.872226,35.189209 a 3.1120136,2.3089132 0 0 1 -3.105347,2.308908 3.1120136,2.3089132 0 0 1 -3.118652,-2.299015 3.1120136,2.3089132 0 0 1 3.091984,-2.318759 3.1120136,2.3089132 0 0 1 3.1319,2.28908"
       transform="rotate(-26.315742)" />
  </g>
  <g
     inkscape:groupmode="layer"
     id="layer3"
     inkscape:label="Layer 3"
     style="display:none"
     sodipodi:insensitive="true">
    <path
       style="fill:none;stroke:#000000;stroke-width:0.70695961;stroke-linecap:butt;stroke-linejoin:miter;stroke-miterlimit:4;stroke-dasharray:none;stroke-opacity:1"
       d="M 7.8838022,22.211293 20.242441,13.786632 c 0.526418,-1.294877 -1.401343,-3.54535 -3.191717,-3.340175 l -12.7668827,8.72157 z"
       id="path1609"
       inkscape:connector-curvature="0"
       sodipodi:nodetypes="ccccc" />
    <path
       style="fill:none;stroke:#000000;stroke-width:0.70695961;stroke-linecap:butt;stroke-linejoin:miter;stroke-miterlimit:4;stroke-dasharray:none;stroke-opacity:1"
       d="M 31.561915,18.091752 12.560046,10.817589 5.7312537,15.271153 18.558849,24.894175 Z"
       id="path1039"
       inkscape:connector-curvature="0"
       sodipodi:nodetypes="ccccc" />
    <path
       style="fill:none;stroke:#000000;stroke-width:0.70695961;stroke-linecap:butt;stroke-linejoin:miter;stroke-miterlimit:4;stroke-dasharray:none;stroke-opacity:1"
       d="M 54.423543,16.90413 44.031897,12.30211 18.795036,23.732931 40.765955,35.015299 Z"
       id="path1025"
       inkscape:connector-curvature="0" />
    <path
       style="fill:none;stroke:#000000;stroke-width:0.70695961;stroke-linecap:butt;stroke-linejoin:miter;stroke-miterlimit:4;stroke-dasharray:none;stroke-opacity:1"
       d="m 54.423543,16.90413 v 6.828801 l -14.251403,21.22866 0.593815,-9.946292 z"
       id="path1027"
       inkscape:connector-curvature="0" />
    <path
       style="fill:none;stroke:#000000;stroke-width:0.70695961;stroke-linecap:butt;stroke-linejoin:miter;stroke-miterlimit:4;stroke-dasharray:none;stroke-opacity:1"
       d="m 18.795036,23.732931 -0.148454,9.204042 21.525558,12.024618 0.593815,-9.946292 z"
       id="path1033"
       inkscape:connector-curvature="0" />
    <path
       style="fill:none;stroke:#000000;stroke-width:0.70695961;stroke-linecap:butt;stroke-linejoin:miter;stroke-miterlimit:4;stroke-dasharray:none;stroke-opacity:1"
       d="M 54.423543,16.90413 54.27509,13.860855 44.031897,12.30211 Z"
       id="path1037"
       inkscape:connector-curvature="0"
       sodipodi:nodetypes="cccc" />
    <path
       style="fill:none;stroke:#000000;stroke-width:0.70695961;stroke-linecap:butt;stroke-linejoin:miter;stroke-miterlimit:4;stroke-dasharray:none;stroke-opacity:1"
       d="M 58.669166,50.467298 69.044867,37.82558 C 69.68441,36.281069 68.649786,32.802076 65.097353,34.721567 L 53.340545,47.21318 Z"
       id="path1586"
       inkscape:connector-curvature="0"
       sodipodi:nodetypes="ccccc" />
    <path
       style="fill:none;stroke:#000000;stroke-width:0.70695961;stroke-linecap:butt;stroke-linejoin:miter;stroke-miterlimit:4;stroke-dasharray:none;stroke-opacity:1"
       d="m 49.673076,26.998882 -7.719507,11.579266 21.674007,6.680351 5.938092,-6.977248 z"
       id="path1035"
       inkscape:connector-curvature="0" />
    <ellipse
       style="fill:none;stroke:#000000;stroke-width:0.7070567;stroke-linecap:round;stroke-linejoin:round;stroke-miterlimit:4;stroke-dasharray:none;stroke-opacity:1"
       id="path1041"
       cx="-73.31691"
       cy="10.081614"
       rx="2.9986835"
       ry="2.5306795"
       transform="matrix(-0.83752939,-0.54639228,-0.52661079,0.85010651,0,0)" />
    <ellipse
       style="fill:none;stroke:#000000;stroke-width:0.71968001;stroke-linecap:round;stroke-linejoin:round;stroke-miterlimit:4;stroke-dasharray:none;stroke-opacity:1"
       id="path1607"
       cx="-21.617178"
       cy="11.176511"
       rx="2.2678294"
       ry="1.8288864"
       transform="matrix(-0.72440808,-0.6893714,-0.85529419,0.51814269,0,0)" />
    <path
       style="fill:none;stroke:#000000;stroke-width:0.70695961;stroke-linecap:butt;stroke-linejoin:miter;stroke-miterlimit:4;stroke-dasharray:none;stroke-opacity:1"
       d="M 38.836073,22.248409 38.168037,18.091752 30.652648,17.609282 30.30008,28.557633 Z"
       id="path1611"
       inkscape:connector-curvature="0"
       sodipodi:nodetypes="ccccc" />
    <path
       style="fill:none;stroke:#000000;stroke-width:0.70695961;stroke-linecap:butt;stroke-linejoin:miter;stroke-miterlimit:4;stroke-dasharray:none;stroke-opacity:1"
       d="m 30.78254,39.209068 -4.602008,-2.189663 -2.597919,3.674187 2.486573,4.379339 4.268002,2.338117 2.449457,-2.672133 z"
       id="path1613"
       inkscape:connector-curvature="0" />
    <path
       style="fill:none;stroke:#000000;stroke-width:0.70695961;stroke-linecap:butt;stroke-linejoin:miter;stroke-miterlimit:4;stroke-dasharray:none;stroke-opacity:1"
       d="m 20.056878,33.939026 -3.896869,-2.486581 -2.486571,1.484528 1.707196,5.78963 3.822639,2.226781 2.894819,-2.44946 z"
       id="path1615"
       inkscape:connector-curvature="0"
       sodipodi:nodetypes="ccccccc" />
    <path
       style="fill:none;stroke:#000000;stroke-width:0.70695961;stroke-linecap:butt;stroke-linejoin:miter;stroke-miterlimit:4;stroke-dasharray:none;stroke-opacity:1"
       d="m 32.786645,44.738915 4.564907,-6.012312 -2.004108,-3.19172 -2.709243,-1.558751 -6.457669,3.043273 4.602008,2.189663 z"
       id="path1617"
       inkscape:connector-curvature="0" />
    <path
       style="fill:none;stroke:#000000;stroke-width:0.70695961;stroke-linecap:butt;stroke-linejoin:miter;stroke-miterlimit:4;stroke-dasharray:none;stroke-opacity:1"
       d="M 35.347444,35.534883 30.78254,39.209068"
       id="path1619"
       inkscape:connector-curvature="0" />
    <path
       style="fill:none;stroke:#000000;stroke-width:0.70695961;stroke-linecap:butt;stroke-linejoin:miter;stroke-miterlimit:4;stroke-dasharray:none;stroke-opacity:1"
       d="m 22.098092,38.503924 4.602017,-4.676237 -1.224729,-3.785533 -3.080381,-1.67009 -6.23499,3.080381 3.896869,2.486581 z"
       id="path1621"
       inkscape:connector-curvature="0" />
    <path
       style="fill:none;stroke:#000000;stroke-width:0.70695961;stroke-linecap:butt;stroke-linejoin:miter;stroke-miterlimit:4;stroke-dasharray:none;stroke-opacity:1"
       d="m 25.47538,30.042154 -5.418502,3.896872"
       id="path1623"
       inkscape:connector-curvature="0" />
    <ellipse
       style="fill:none;stroke:#000000;stroke-width:0.70695955;stroke-linecap:round;stroke-linejoin:round;stroke-miterlimit:4;stroke-dasharray:none;stroke-opacity:1"
       id="path1625"
       ry="2.07833"
       rx="3.3030608"
       cy="28.364344"
       cx="-40.634392"
       transform="matrix(-0.96646513,0.25679789,0.25679789,0.96646513,0,0)" />
    <path
       style="fill:none;stroke:#000000;stroke-width:0.70695955;stroke-linecap:round;stroke-linejoin:round;stroke-miterlimit:4;stroke-dasharray:none;stroke-opacity:1"
       id="path1629-6"
       sodipodi:type="arc"
       sodipodi:cx="6.1650009"
       sodipodi:cy="57.02813"
       sodipodi:rx="2.4547997"
       sodipodi:ry="0.75823599"
       sodipodi:start="0"
       sodipodi:end="6.2746091"
       d="M 8.6198006,57.02813 A 2.4547997,0.75823599 0 0 1 6.1702641,57.786364 2.4547997,0.75823599 0 0 1 3.7102238,57.031381 2.4547997,0.75823599 0 0 1 6.1492114,56.269909 2.4547997,0.75823599 0 0 1 8.6197103,57.021627"
       sodipodi:open="true"
       transform="matrix(-0.29436513,0.95569303,0.95569303,0.29436513,0,0)" />
  </g>
</svg>
